g triangleHL
v -0.01 -0.01 -0.01
v 6.530732E-06 0.01 -0.01
v -8.230128E-06 0.01 0.01
v -0.01 -0.01 0.01
v 6.530732E-06 0.01 -0.01
v -6.530732E-06 0.01 -0.01
v 8.230128E-06 0.01 0.01
v -8.230128E-06 0.01 0.01
v -6.530732E-06 0.01 -0.01
v 0.01 -0.01 -0.01
v 0.01 -0.01 0.01
v 8.230128E-06 0.01 0.01
v 0.01 -0.01 -0.01
v -0.01 -0.01 -0.01
v -0.01 -0.01 0.01
v 0.01 -0.01 0.01
v 0.005834365 -0.008661924 -0.01000007
v 0.005834365 -0.008661924 0.009999931
v -0.005834761 -0.008661448 0.01000007
v -0.005834761 -0.008661448 -0.009999931
v 0.009535822 -0.009713217 -0.01000002
v 0.01 -0.01 -0.01
v -6.530732E-06 0.01 -0.01
v 0.006959446 -0.006863529 -0.01000008
v 0.0008690171 0.0056559 -0.01000001
v -6.396012E-06 0.009454376 -0.01
v -0.0008798197 0.005655413 -0.00999999
v -0.01 -0.01 -0.01
v -0.006960843 -0.006862403 -0.009999918
v -0.009535907 -0.00971308 -0.00999998
v 0.005834365 -0.008661924 -0.01000007
v -0.005834761 -0.008661448 -0.009999931
v -0.006533604 -0.008524478 -0.009999922
v -0.006993009 -0.008134485 -0.009999918
v -0.007143035 -0.007550842 -0.009999916
v 0.007142022 -0.00755177 -0.01000008
v 0.006992321 -0.00813522 -0.01000008
v 0.006533133 -0.008525054 -0.01000008
v -0.0004787866 0.006206945 -0.009999994
v -5.608805E-06 0.00640071 -0.01
v 0.000467677 0.006207209 -0.01000001
v 0.0008690171 0.0056559 -0.01000001
v 0.000867695 0.005655964 0.00999999
v 0.006959315 -0.006863593 0.009999918
v 0.006959446 -0.006863529 -0.01000008
v 6.530732E-06 0.01 -0.01
v -0.01 -0.01 -0.01
v -6.530732E-06 0.01 -0.01
v 8.230128E-06 0.01 0.01
v 0.01 -0.01 0.01
v -8.230128E-06 0.01 0.01
v 0.009535822 -0.009713217 0.00999998
v 0.006959315 -0.006863593 0.009999918
v 0.000867695 0.005655964 0.00999999
v -8.042631E-06 0.009454376 0.01
v -0.0008811415 0.005655349 0.01000001
v -0.01 -0.01 0.01
v -0.006960974 -0.00686234 0.01000008
v -0.009535907 -0.00971308 0.01000002
v -0.007143116 -0.007550804 0.01000008
v -0.006993047 -0.008134468 0.01000008
v -0.006533613 -0.008524475 0.01000008
v -0.005834761 -0.008661448 0.01000007
v 0.0004663147 0.006207244 0.009999994
v -6.985037E-06 0.006400711 0.01
v -0.0004801487 0.006206912 0.01000001
v 0.007141941 -0.007551809 0.009999916
v 0.006992283 -0.008135239 0.009999918
v 0.006533123 -0.008525059 0.009999922
v 0.005834365 -0.008661924 0.009999931
v -0.006960843 -0.006862403 -0.009999918
v -0.006960974 -0.00686234 0.01000008
v -0.0008811415 0.005655349 0.01000001
v -0.0008798197 0.005655413 -0.00999999
v 0.000867695 0.005655964 0.00999999
v 0.0008690171 0.0056559 -0.01000001
v 0.000467677 0.006207209 -0.01000001
v 0.0004663147 0.006207244 0.009999994
v 0.0004663147 0.006207244 0.009999994
v 0.000467677 0.006207209 -0.01000001
v -5.608805E-06 0.00640071 -0.01
v -6.985037E-06 0.006400711 0.01
v -6.985037E-06 0.006400711 0.01
v -5.608805E-06 0.00640071 -0.01
v -0.0004787866 0.006206945 -0.009999994
v -0.0004801487 0.006206912 0.01000001
v -0.0004801487 0.006206912 0.01000001
v -0.0004787866 0.006206945 -0.009999994
v -0.0008798197 0.005655413 -0.00999999
v -0.0008811415 0.005655349 0.01000001
v 0.005834365 -0.008661924 0.009999931
v 0.005834365 -0.008661924 -0.01000007
v 0.006533133 -0.008525054 -0.01000008
v 0.006533123 -0.008525059 0.009999922
v 0.006533123 -0.008525059 0.009999922
v 0.006533133 -0.008525054 -0.01000008
v 0.006992321 -0.00813522 -0.01000008
v 0.006992283 -0.008135239 0.009999918
v 0.006992283 -0.008135239 0.009999918
v 0.006992321 -0.00813522 -0.01000008
v 0.007142022 -0.00755177 -0.01000008
v 0.007141941 -0.007551809 0.009999916
v 0.007141941 -0.007551809 0.009999916
v 0.007142022 -0.00755177 -0.01000008
v 0.006959446 -0.006863529 -0.01000008
v 0.006959315 -0.006863593 0.009999918
v -0.005834761 -0.008661448 -0.009999931
v -0.005834761 -0.008661448 0.01000007
v -0.006533613 -0.008524475 0.01000008
v -0.006533604 -0.008524478 -0.009999922
v -0.006533604 -0.008524478 -0.009999922
v -0.006533613 -0.008524475 0.01000008
v -0.006993047 -0.008134468 0.01000008
v -0.006993009 -0.008134485 -0.009999918
v -0.006993009 -0.008134485 -0.009999918
v -0.006993047 -0.008134468 0.01000008
v -0.007143116 -0.007550804 0.01000008
v -0.007143035 -0.007550842 -0.009999916
v -0.007143035 -0.007550842 -0.009999916
v -0.007143116 -0.007550804 0.01000008
v -0.006960974 -0.00686234 0.01000008
v -0.006960843 -0.006862403 -0.009999918
vn -0.8944423 0.4471832 -0.0003300684
vn -0.8944423 0.4471832 -0.0003300684
vn -0.8944423 0.4471832 -0.0003300684
vn -0.8944423 0.4471832 -0.0003300684
vn 0 1 0
vn 0 1 0
vn 0 1 0
vn 0 1 0
vn 0.8944423 0.4471832 -0.0003300684
vn 0.8944423 0.4471832 -0.0003300684
vn 0.8944423 0.4471832 -0.0003300684
vn 0.8944423 0.4471832 -0.0003300684
vn 0 -1 0
vn 0 -1 0
vn 0 -1 0
vn 0 -1 0
vn 4.076098E-05 1 0
vn 4.076098E-05 1 0
vn 4.076098E-05 1 0
vn 4.076098E-05 1 0
vn 3.188731E-05 1.824381E-05 -1
vn 3.188731E-05 1.824381E-05 -1
vn 3.188731E-05 1.824381E-05 -1
vn 3.188731E-05 1.824381E-05 -1
vn 3.188731E-05 1.824381E-05 -1
vn 3.188731E-05 1.824381E-05 -1
vn 3.227247E-05 -1.820679E-05 -1
vn 3.227247E-05 -1.820679E-05 -1
vn 3.227247E-05 -1.820679E-05 -1
vn 3.227247E-05 -1.820679E-05 -1
vn -4.509991E-06 1.527565E-07 -1
vn -4.509991E-06 1.527565E-07 -1
vn -2.399785E-06 5.237351E-05 -1
vn 1.041477E-05 2.469121E-05 -1
vn 2.078059E-05 8.097969E-06 -1
vn 4.281657E-05 1.37623E-05 -1
vn 1.559214E-05 -8.815993E-06 -1
vn 9.551264E-06 -2.333473E-05 -1
vn -1.144274E-05 0 -1
vn -1.237399E-05 0 -1
vn -1.237378E-05 0 -1
vn -0.8992221 -0.4374924 -3.266784E-05
vn -0.8992221 -0.4374924 -3.266784E-05
vn -0.8992221 -0.4374924 -3.266784E-05
vn -0.8992221 -0.4374924 -3.266784E-05
vn 0 0 1
vn 0 0 1
vn 0 0 1
vn 0 0 1
vn 0 0 1
vn 0 0 1
vn -3.201038E-05 -1.823007E-05 1
vn -3.201038E-05 -1.823007E-05 1
vn -3.201038E-05 -1.823007E-05 1
vn -3.201038E-05 -1.823007E-05 1
vn -3.189012E-05 1.822051E-05 1
vn -3.189012E-05 1.822051E-05 1
vn -3.189012E-05 1.822051E-05 1
vn -3.189012E-05 1.822051E-05 1
vn -4.279519E-05 1.373163E-05 1
vn -1.55845E-05 -8.823721E-06 1
vn -9.546489E-06 -2.33299E-05 1
vn 1.19987E-06 -5.170211E-05 1
vn 1.144228E-05 1.043734E-07 1
vn 1.237386E-05 0 1
vn 1.237392E-05 0 1
vn -2.079074E-05 8.089237E-06 1
vn -1.041998E-05 2.469662E-05 1
vn 2.401087E-06 5.240061E-05 1
vn 2.401087E-06 5.240061E-05 1
vn 0.8994974 -0.4369259 3.267034E-05
vn 0.8994974 -0.4369259 3.267034E-05
vn 0.8994974 -0.4369259 3.267034E-05
vn 0.8994974 -0.4369259 3.267034E-05
vn -0.808444 -0.5885731 -5.281295E-05
vn -0.808444 -0.5885731 -5.281295E-05
vn -0.808444 -0.5885731 -5.281295E-05
vn -0.808444 -0.5885731 -5.281295E-05
vn -0.3784056 -0.9256399 -2.508108E-05
vn -0.3784056 -0.9256399 -2.508108E-05
vn -0.3784056 -0.9256399 -2.508108E-05
vn -0.3784056 -0.9256399 -2.508108E-05
vn 0.3789891 -0.9254012 2.519037E-05
vn 0.3789891 -0.9254012 2.519037E-05
vn 0.3789891 -0.9254012 2.519037E-05
vn 0.3789891 -0.9254012 2.519037E-05
vn 0.8088145 -0.5880639 5.285391E-05
vn 0.8088145 -0.5880639 5.285391E-05
vn 0.8088145 -0.5880639 5.285391E-05
vn 0.8088145 -0.5880639 5.285391E-05
vn -0.1922187 0.9813521 0
vn -0.1922187 0.9813521 0
vn -0.1922187 0.9813521 0
vn -0.1922187 0.9813521 0
vn -0.647195 0.7623245 -2.783144E-07
vn -0.647195 0.7623245 -2.783144E-07
vn -0.647195 0.7623245 -2.783144E-07
vn -0.647195 0.7623245 -2.783144E-07
vn -0.9686318 0.2485004 -2.528022E-06
vn -0.9686318 0.2485004 -2.528022E-06
vn -0.9686318 0.2485004 -2.528022E-06
vn -0.9686318 0.2485004 -2.528022E-06
vn -0.9665582 -0.2564476 -5.781199E-06
vn -0.9665582 -0.2564476 -5.781199E-06
vn -0.9665582 -0.2564476 -5.781199E-06
vn -0.9665582 -0.2564476 -5.781199E-06
vn 0.1923368 0.981329 0
vn 0.1923368 0.981329 0
vn 0.1923368 0.981329 0
vn 0.1923368 0.981329 0
vn 0.6471604 0.762354 4.018103E-07
vn 0.6471604 0.762354 4.018103E-07
vn 0.6471604 0.762354 4.018103E-07
vn 0.6471604 0.762354 4.018103E-07
vn 0.9685068 0.2489874 2.57313E-06
vn 0.9685068 0.2489874 2.57313E-06
vn 0.9685068 0.2489874 2.57313E-06
vn 0.9685068 0.2489874 2.57313E-06
vn 0.9667298 -0.2557997 5.76727E-06
vn 0.9667298 -0.2557997 5.76727E-06
vn 0.9667298 -0.2557997 5.76727E-06
vn 0.9667298 -0.2557997 5.76727E-06
g triangleHL_0
f 3/3/3 2/2/2 1/1/1
f 4/4/4 3/3/3 1/1/1
f 7/7/7 6/6/6 5/5/5
f 8/8/8 7/7/7 5/5/5
f 11/11/11 10/10/10 9/9/9
f 12/12/12 11/11/11 9/9/9
f 15/15/15 14/14/14 13/13/13
f 16/16/16 15/15/15 13/13/13
f 19/19/19 18/18/18 17/17/17
f 20/20/20 19/19/19 17/17/17
f 23/23/23 22/22/22 21/21/21
f 21/21/21 24/24/24 23/23/23
f 24/24/24 25/25/25 23/23/23
f 25/25/25 26/26/26 23/23/23
f 23/23/23 26/26/26 27/27/27
f 27/27/27 28/28/28 23/23/23
f 21/21/21 22/22/22 28/28/28
f 27/27/27 29/29/29 28/28/28
f 29/29/29 30/30/30 28/28/28
f 28/28/28 31/31/31 21/21/21
f 28/28/28 32/32/32 31/31/31
f 28/28/28 30/30/30 32/32/32
f 30/30/30 33/33/33 32/32/32
f 30/30/30 34/34/34 33/33/33
f 30/30/30 35/35/35 34/34/34
f 30/30/30 29/29/29 35/35/35
f 21/21/21 36/36/36 24/24/24
f 21/21/21 37/37/37 36/36/36
f 21/21/21 38/38/38 37/37/37
f 21/21/21 31/31/31 38/38/38
f 26/26/26 39/39/39 27/27/27
f 26/26/26 40/40/40 39/39/39
f 26/26/26 41/41/41 40/40/40
f 26/26/26 25/25/25 41/41/41
f 44/44/44 43/43/43 42/42/42
f 45/45/45 44/44/44 42/42/42
f 48/48/48 47/47/47 46/46/46
f 51/51/51 50/50/50 49/49/49
f 52/52/52 50/50/50 51/51/51
f 51/51/51 53/53/53 52/52/52
f 51/51/51 54/54/54 53/53/53
f 51/51/51 55/55/55 54/54/54
f 56/56/56 55/55/55 51/51/51
f 51/51/51 57/57/57 56/56/56
f 57/57/57 50/50/50 52/52/52
f 57/57/57 58/58/58 56/56/56
f 57/57/57 59/59/59 58/58/58
f 59/59/59 60/60/60 58/58/58
f 59/59/59 61/61/61 60/60/60
f 59/59/59 62/62/62 61/61/61
f 59/59/59 63/63/63 62/62/62
f 63/63/63 59/59/59 57/57/57
f 55/55/55 64/64/64 54/54/54
f 55/55/55 65/65/65 64/64/64
f 55/55/55 66/66/66 65/65/65
f 55/55/55 56/56/56 66/66/66
f 52/52/52 53/53/53 67/67/67
f 52/52/52 67/67/67 68/68/68
f 52/52/52 68/68/68 69/69/69
f 52/52/52 69/69/69 70/70/70
f 52/52/52 70/70/70 57/57/57
f 70/70/70 63/63/63 57/57/57
f 73/73/73 72/72/72 71/71/71
f 74/74/74 73/73/73 71/71/71
f 77/77/77 76/76/76 75/75/75
f 78/78/78 77/77/77 75/75/75
f 81/81/81 80/80/80 79/79/79
f 82/82/82 81/81/81 79/79/79
f 85/85/85 84/84/84 83/83/83
f 86/86/86 85/85/85 83/83/83
f 89/89/89 88/88/88 87/87/87
f 90/90/90 89/89/89 87/87/87
f 93/93/93 92/92/92 91/91/91
f 94/94/94 93/93/93 91/91/91
f 97/97/97 96/96/96 95/95/95
f 98/98/98 97/97/97 95/95/95
f 101/101/101 100/100/100 99/99/99
f 102/102/102 101/101/101 99/99/99
f 105/105/105 104/104/104 103/103/103
f 106/106/106 105/105/105 103/103/103
f 109/109/109 108/108/108 107/107/107
f 110/110/110 109/109/109 107/107/107
f 113/113/113 112/112/112 111/111/111
f 114/114/114 113/113/113 111/111/111
f 117/117/117 116/116/116 115/115/115
f 118/118/118 117/117/117 115/115/115
f 121/121/121 120/120/120 119/119/119
f 122/122/122 121/121/121 119/119/119
